<svg xmlns="http://www.w3.org/2000/svg" xmlns:xlink="http://www.w3.org/1999/xlink" width="30" height="32" viewBox="0 0 30 32">
    <defs>
        <circle id="b" cx="12.708" cy="10.942" r="10.942"/>
        <filter id="a" width="164%" height="164%" x="-32%" y="-22.8%" filterUnits="objectBoundingBox">
            <feOffset dy="2" in="SourceAlpha" result="shadowOffsetOuter1"/>
            <feGaussianBlur in="shadowOffsetOuter1" result="shadowBlurOuter1" stdDeviation="2"/>
            <feColorMatrix in="shadowBlurOuter1" values="0 0 0 0 0 0 0 0 0 0 0 0 0 0 0 0 0 0 0.5 0"/>
        </filter>
    </defs>
    <g fill="none" fill-rule="evenodd">
        <path fill="#E95454" d="M8.583 14.964L2.035 27.3l5.946-.55 2.878 5.234 6.549-12.337z"/>
        <g fill="#ED6362">
            <path d="M9.333 28.393c.184-.395-.008-.867-.393-1.071l-.377-.2a.807.807 0 0 1 .776-1.414l1.065.566c.329.174.741.048.911-.283l.026-.051a.636.636 0 0 0-.244-.896l-3.186-1.69c-.388-.207-.579-.676-.398-1.072a.808.808 0 0 1 1.11-.371l2.955 1.568a.68.68 0 0 0 .916-.281l.017-.043.005-.01a.708.708 0 0 0-.292-.962l-1.657-.88c-.388-.206-.579-.676-.395-1.076a.811.811 0 0 1 1.11-.371l1.831.972c.342.182.751.03.928-.315l.005-.01.005-.009c.186-.34.083-.764-.26-.945l-1.975-1.048c-.384-.203-.574-.673-.393-1.069a.808.808 0 0 1 1.11-.371l4.873 2.587-6.548 12.337-1.805-3.28a.767.767 0 0 0 .28-.312z"/>
            <path d="M20.832 14.964L27.381 27.3l-5.947-.55-2.878 5.234-6.548-12.337z"/>
        </g>
        <path fill="#E95454" d="M20.082 28.392c-.183-.394.009-.866.393-1.07l.377-.2a.807.807 0 0 0-.775-1.414l-1.065.566a.672.672 0 0 1-.911-.283l-.027-.051a.636.636 0 0 1 .245-.896l3.187-1.692c.388-.206.578-.675.397-1.071a.808.808 0 0 0-1.11-.371l-2.955 1.568a.68.68 0 0 1-.916-.281l-.017-.043-.004-.01a.708.708 0 0 1 .291-.962l1.658-.88c.388-.206.578-.676.394-1.076a.811.811 0 0 0-1.11-.371l-1.832.974c-.343.182-.751.03-.929-.315l-.004-.01-.005-.009c-.187-.34-.083-.764.26-.945l1.975-1.048c.383-.204.574-.673.393-1.069a.808.808 0 0 0-1.11-.371l-4.873 2.586 6.548 12.338 1.805-3.28a.78.78 0 0 1-.28-.314z"/>
        <g transform="translate(2 2)">
            <use fill="#000" filter="url(#a)" xlink:href="#b"/>
            <use fill="#FFCC5B" xlink:href="#b"/>
        </g>
        <path fill="#FDBC4B" d="M16.192 11.686H9.258a.985.985 0 0 1-.981-.981l.007-.068v-.015a1.025 1.025 0 0 1 1.027-1.034h4.805c.637 0 1.2-.471 1.237-1.109a1.175 1.175 0 0 0-1.17-1.229h-5.09c-.561 0-.981-.472-.974-1.034V6.2v-.015c-.007-.562.412-1.034.974-1.034h5.327c.63 0 1.192-.472 1.23-1.102a1.17 1.17 0 0 0-1.17-1.229h-3.9C6.6 4.461 3.797 8.372 3.797 12.941c0 4.57 2.803 8.48 6.782 10.118h4.953c.629 0 1.191-.471 1.229-1.101a1.17 1.17 0 0 0-1.17-1.229H9.959c-.664 0-1.2-.556-1.164-1.23.033-.63.6-1.103 1.23-1.103h2.184a1.168 1.168 0 0 0-.033-2.334H8.863a.974.974 0 0 1-.974-.982v-.082a.922.922 0 0 1 .922-.982h7.313c.637 0 1.2-.472 1.237-1.102a1.171 1.171 0 0 0-1.17-1.228z"/>
        <path fill="#FFDB70" d="M14.708 20.75c-4.307 0-7.81-3.503-7.81-7.81 0-4.305 3.503-7.809 7.81-7.809 4.307 0 7.81 3.505 7.81 7.81 0 4.306-3.503 7.81-7.81 7.81z"/>
        <path fill="#FFF" d="M22.518 12.942c0-4.155-3.264-7.554-7.362-7.788h-.728c-.48 0-.908.36-.937.84a.893.893 0 0 0 .892.937l4.297.001c.507 0 .915.424.888.938-.026.48-.457.842-.939.842h-1.666a.892.892 0 0 0-.866.888c0 .492.4.892.892.892h2.525c.412 0 .748.337.743.748v.062a.703.703 0 0 1-.703.748h-5.577c-.486 0-.915.36-.944.84a.893.893 0 0 0 .892.938h5.287a.75.75 0 0 1 .749.748l-.006.051v.011a.782.782 0 0 1-.783.789h-3.665c-.486 0-.915.36-.944.846a.897.897 0 0 0 .892.937h3.882c.429 0 .748.36.743.788v.022c.005.43-.314.79-.743.79h-4.062c-.48 0-.908.36-.938.84a.893.893 0 0 0 .892.937h1.072c3.546-.739 6.217-3.886 6.217-7.645z" opacity=".2"/>
        <path fill="#EC9922" d="M20.16 11.212h-3.798l-1.175-3.613a.504.504 0 0 0-.96 0l-1.173 3.613H9.255a.504.504 0 0 0-.296.912l3.073 2.233-1.174 3.613c-.15.464.381.85.777.564l3.073-2.233 3.073 2.233c.396.287.927-.1.776-.564l-1.174-3.613 3.074-2.233a.504.504 0 0 0-.297-.912z"/>
    </g>
</svg>
