<svg xmlns="http://www.w3.org/2000/svg" width="76" height="76" viewBox="0 0 76 76">
    <defs>
        <filter id="a" width="166.7%" height="166.7%" x="-33.3%" y="-33.3%" filterUnits="objectBoundingBox">
            <feOffset dy="2" in="SourceAlpha" result="shadowOffsetOuter1"/>
            <feGaussianBlur in="shadowOffsetOuter1" result="shadowBlurOuter1" stdDeviation="4"/>
            <feColorMatrix in="shadowBlurOuter1" result="shadowMatrixOuter1" values="0 0 0 0 0.000212585034 0 0 0 0 0.000212585034 0 0 0 0 0.000212585034 0 0 0 0.180508379 0"/>
            <feMerge>
                <feMergeNode in="shadowMatrixOuter1"/>
                <feMergeNode in="SourceGraphic"/>
            </feMerge>
        </filter>
    </defs>
    <g fill="none" fill-rule="evenodd">
        <g filter="url(#a)" transform="translate(8 6)">
            <path fill="#E27A3B" d="M8.793 20.66h42.66v31.035H8.792z"/>
            <path fill="#FFF" d="M47.586 22.471h7.242v27.07h-7.242zM12.414 49.059H5.172v-25.64h7.242z"/>
            <g fill="#FFF">
                <path d="M45.517 20.143h11.38v2.587a2.069 2.069 0 0 1-2.07 2.068h-7.24a2.069 2.069 0 0 1-2.07-2.068v-2.587zM47.586 47.557h7.242c1.142 0 2.068.927 2.068 2.07v2.586H45.517v-2.587c0-1.142.926-2.069 2.07-2.069zM12.414 24.798H5.172a2.069 2.069 0 0 1-2.068-2.068v-2.587h11.379v2.587a2.069 2.069 0 0 1-2.07 2.068zM14.483 52.213H3.103v-2.587c0-1.142.927-2.069 2.07-2.069h7.24c1.144 0 2.07.927 2.07 2.07v2.586z"/>
            </g>
            <path fill="#FFD6BD" d="M2.07 15.178h56.895v4.448c0 .571-.463 1.035-1.034 1.035H3.104a1.035 1.035 0 0 1-1.035-1.035v-4.448zM57.93 51.695c.572 0 1.035.464 1.035 1.035v5.172H2.07V52.73c0-.571.463-1.035 1.035-1.035H57.93z"/>
            <path fill="#FFF" d="M58.965 16.523H1.035A1.035 1.035 0 0 1 0 15.488v-5.444c0-.452.293-.853.724-.988L29.08.256c.6-.186 1.24-.186 1.84 0l28.356 8.8c.431.135.724.536.724.988v5.444c0 .572-.463 1.035-1.035 1.035z"/>
            <path fill="#E27A3B" d="M4.138 12.385v-.055L29.69 4.399c.2-.062.413-.062.612 0l25.56 7.93v.056H4.138z"/>
            <path fill="#FFF" d="M41.38 36.178c0 6.285-5.095 11.38-11.38 11.38-6.285 0-11.38-5.095-11.38-11.38 0-6.285 5.095-11.38 11.38-11.38 6.285 0 11.38 5.095 11.38 11.38z"/>
            <path fill="#E27A3B" d="M1.035 55.833h57.93c.572 0 1.035.463 1.035 1.035v2.069c0 .57-.463 1.034-1.035 1.034H1.035A1.035 1.035 0 0 1 0 58.937v-2.07c0-.57.463-1.034 1.035-1.034z"/>
        </g>
        <path fill="#E27A3B" stroke="#E27A3B" d="M41.654 40.103h-1.752a3.452 3.452 0 0 0-1.383-2.413h3.135c.19 0 .345-.156.345-.345a.346.346 0 0 0-.345-.345h-7.297a.346.346 0 0 0-.344.345c0 .19.155.345.344.345h2.09c1.42 0 2.593 1.069 2.762 2.413h-4.852a.346.346 0 0 0-.344.345c0 .19.155.345.344.345h4.852a2.791 2.791 0 0 1-2.762 2.448h-2.086a.35.35 0 0 0-.238.604l5.217 4.934a.344.344 0 0 0 .486-.013.352.352 0 0 0-.013-.494l-4.59-4.341h1.22c1.8 0 3.287-1.38 3.46-3.138h1.751c.19 0 .345-.155.345-.345a.346.346 0 0 0-.345-.345z"/>
    </g>
</svg>
