<svg xmlns="http://www.w3.org/2000/svg" width="67" height="76" viewBox="0 0 67 76">
    <defs>
        <filter id="a" width="178.4%" height="166.7%" x="-39.2%" y="-33.3%" filterUnits="objectBoundingBox">
            <feOffset dy="2" in="SourceAlpha" result="shadowOffsetOuter1"/>
            <feGaussianBlur in="shadowOffsetOuter1" result="shadowBlurOuter1" stdDeviation="4"/>
            <feColorMatrix in="shadowBlurOuter1" result="shadowMatrixOuter1" values="0 0 0 0 0.000212585034 0 0 0 0 0.000212585034 0 0 0 0 0.000212585034 0 0 0 0.180508379 0"/>
            <feMerge>
                <feMergeNode in="shadowMatrixOuter1"/>
                <feMergeNode in="SourceGraphic"/>
            </feMerge>
        </filter>
    </defs>
    <g fill="none" fill-rule="evenodd" filter="url(#a)" transform="translate(8 6)">
        <path fill="#E27A3B" d="M51 34.576v16.271h-8.16V46.78h4.08v-6.102H4.08v6.102h4.08v4.067H0v-16.27z"/>
        <path fill="#955127" d="M42.84 43.729H8.16v3.05H4.08v-6.101h42.84v6.102h-4.08z"/>
        <path fill="#FFF" d="M8.16 43.729h34.68V60H8.16z"/>
        <path fill="#E27A3B" d="M51 34.576H0L4.08 20.34h42.84z"/>
        <path fill="#955127" d="M25.5 24.407h16.32l1.02 4.068H8.16l1.02-4.068z"/>
        <path fill="#E27A3B" d="M29.58 51.864a4.074 4.074 0 0 1-4.08 4.068 4.074 4.074 0 0 1-4.08-4.068 4.074 4.074 0 0 1 4.08-4.067 4.074 4.074 0 0 1 4.08 4.067z"/>
        <path fill="#3E3D42" d="M42.84 43.729h2.04v3.05h-2.04zM6.12 43.729h2.04v3.05H6.12z"/>
        <path fill="#955127" d="M42.84 46.78h2.04v4.067h-2.04zM6.12 46.78h2.04v4.067H6.12z"/>
        <path fill="#E27A3B" d="M18.36 56.95h-6.12c-.563 0-1.02-.456-1.02-1.018v-8.135c0-.562.457-1.017 1.02-1.017h6.12v2.034h-5.1v6.101h5.1v2.034zM38.76 56.95h-6.12v-2.035h5.1v-6.101h-5.1V46.78h6.12c.563 0 1.02.455 1.02 1.017v8.135c0 .562-.457 1.017-1.02 1.017z"/>
        <path fill="#FFF" d="M28.56 19.322v-2.034h-2.04v-1.017h-2.04v1.017c-1.127 0-2.04.91-2.04 2.034v1.017c0 1.123.913 2.034 2.04 2.034h2.04v1.017h-4.08v2.034h2.04v1.017h2.04v-1.017c1.127 0 2.04-.911 2.04-2.034v-1.017a2.037 2.037 0 0 0-2.04-2.034h-2.04v-1.017h4.08zM15.3 9.153h1.02V7.119H15.3a5.105 5.105 0 0 0-4.998 4.067H9.18v2.034h1.122a5.105 5.105 0 0 0 4.998 4.068h1.02v-2.034H15.3a3.06 3.06 0 0 1-2.872-2.034h3.892v-2.034h-3.892A3.06 3.06 0 0 1 15.3 9.153zM41.521 1.736L40.08.298 37.74 2.63 35.401.298 33.96 1.736l2.339 2.332H34.68v2.034h2.04v1.017h-2.04v2.034h2.04v1.016h2.04V9.153h2.04V7.119h-2.04V6.102h2.04V4.068h-1.618z"/>
        <g fill="#FFD6BD">
            <path d="M24.48 0h2.04v2.034h-2.04zM31.62 11.186h2.04v2.034h-2.04zM18.36 11.186h2.04v2.034h-2.04zM18.36 3.05h2.04v2.035h-2.04zM31.62 15.254h2.04v2.034h-2.04zM5.1 9.153h2.04v2.033H5.1zM5.1 13.22h2.04v2.034H5.1z"/>
        </g>
        <path fill="#FFF" d="M26.52 7.715V4.068h-2.04v3.647L23.161 6.4 21.72 7.838l3.06 3.05a1.023 1.023 0 0 0 1.442 0l3.06-3.05L27.84 6.4 26.52 7.715zM7.14 3.647V0H5.1v3.647L3.781 2.332 2.34 3.77l3.06 3.05a1.023 1.023 0 0 0 1.442 0l3.06-3.05L8.46 2.332 7.14 3.647zM47.219 12.501L45.9 13.816V10.17h-2.04v3.647l-1.319-1.315L41.1 13.94l3.06 3.051a1.023 1.023 0 0 0 1.442 0l3.06-3.05L47.22 12.5z"/>
        <path fill="#FFD6BD" d="M43.86 6.102h2.04v2.034h-2.04zM43.86 2.034h2.04v2.034h-2.04z"/>
    </g>
</svg>
