<svg xmlns="http://www.w3.org/2000/svg" width="69" height="60" viewBox="0 0 69 60">
    <g fill="none" fill-rule="evenodd">
        <g fill-rule="nonzero" transform="translate(.108 5.806)">
            <path fill="#FFD6BD" d="M68.444 18.316v8.454a.976.976 0 0 1-1.167.96c-.454-.064-.779-.448-.843-.896l-.843-8.646c0-.256-.26-.512-.584-.512a.578.578 0 0 0-.584.576v25.489c0 .704-.518 1.345-1.232 1.473-.778.064-1.491-.449-1.556-1.217l-1.362-13.385c0-.32-.324-.576-.648-.576a.578.578 0 0 0-.584.576L58.004 43.87a1.411 1.411 0 0 1-1.427 1.28h-.26c-.777 0-1.426-.64-1.426-1.408V18.252c0-.32-.26-.576-.583-.576-.26 0-.454.128-.52.384 0-.32.325-.64.65-.64.323 0 .648.256.648.64l1.037 10.439c.065.576.454 1.024 1.038 1.088.778.128 1.426-.448 1.426-1.152V18.252c0-2.882-1.167-5.508-3.112-7.429 1.167-.704 2.529-1.089 4.02-1.153 4.863-.128 8.949 3.779 8.949 8.646z"/>
            <ellipse cx="59.69" cy="4.355" fill="#FFD6BD" rx="4.085" ry="4.035"/>
            <path fill="#FFD6BD" d="M13.52 18.06c0-.128.065-.192.065-.256-.065.064-.065.128-.065.256l.065 25.425c0 .704-.519 1.344-1.232 1.472-.778.065-1.491-.448-1.556-1.216L9.435 30.356c0-.32-.324-.576-.649-.576a.578.578 0 0 0-.583.576L7.1 43.676a1.411 1.411 0 0 1-1.427 1.281h-.26c-.778 0-1.426-.64-1.426-1.408V17.996c0-.32-.26-.577-.584-.577-.259 0-.518.193-.583.513l-.843 8.645c-.065.513-.454.897-.973.897a.949.949 0 0 1-.973-.96v-8.262c0-4.74 3.761-8.71 8.495-8.838 1.816-.064 3.437.448 4.863 1.281-2.01 1.985-3.242 4.74-3.242 7.685v9.99c0 .641.519 1.217 1.232 1.217.649 0 1.167-.448 1.167-1.088l.973-10.44z"/>
            <path fill="#2B3B4E" d="M14.817 18.124v1.857l-.194-1.985c0-.256-.195-.448-.454-.513.389 0 .648.257.648.64z"/>
            <ellipse cx="8.722" cy="4.163" fill="#FFD6BD" rx="4.085" ry="4.035"/>
        </g>
        <g fill="#E27A3B" fill-rule="nonzero" transform="translate(41.636 2.284)">
            <path d="M16.994 21.774v10.183c0 .704-.648 1.28-1.426 1.153-.584-.064-.973-.577-1.038-1.089l-.972-10.439c0-.32-.325-.64-.649-.64-.389 0-.713.32-.713.704v30.74c0 .833-.649 1.665-1.492 1.73-.972.128-1.75-.577-1.88-1.473l-1.621-16.14c-.065-.383-.324-.64-.713-.64-.39 0-.714.32-.714.705L4.35 52.643c-.065.832-.843 1.537-1.686 1.537H2.34c-.908 0-1.686-.769-1.686-1.666v-30.1l.972 10.44A1.44 1.44 0 0 0 2.73 34.07c.843.128 1.491-.512 1.491-1.28V21.774c0-3.394-1.491-6.404-3.89-8.517a10.525 10.525 0 0 1 5.77-1.922c6.031-.192 10.894 4.547 10.894 10.44z"/>
            <ellipse cx="6.425" cy="4.867" rx="4.928" ry="4.867"/>
        </g>
        <g fill-rule="nonzero" transform="translate(10.159 2.284)">
            <path fill="#E27A3B" d="M12.807 21.966V32.79c0 .704.583 1.28 1.297 1.28.648 0 1.232-.512 1.297-1.152l.972-10.567v30.035c0 .833-.648 1.665-1.491 1.73-.908.128-1.75-.577-1.88-1.473l-1.687-16.14c-.064-.383-.389-.64-.713-.64-.389 0-.713.257-.713.64l-1.362 16.14c-.065.832-.843 1.537-1.686 1.537h-.324c-.908 0-1.686-.769-1.686-1.666V21.646a.715.715 0 0 0-.713-.704.646.646 0 0 0-.649.64L2.432 32.021a1.187 1.187 0 0 1-1.168 1.089c-.648 0-1.232-.513-1.232-1.217v-9.927c0-5.7 4.54-10.502 10.246-10.63 2.4-.065 4.604.64 6.42 1.92-2.4 2.114-3.891 5.252-3.891 8.71z"/>
            <path fill="#84DBFF" d="M4.118 21.006a.683.683 0 0 0-.584.32.484.484 0 0 1 .584-.32c-.065-.064-.065-.064 0 0zM17.93 21.646v2.05l-.195-2.114c0-.32-.324-.64-.648-.64-.065 0-.195 0-.26.064.13-.064.26-.128.39-.128.388.064.713.384.713.768z"/>
            <ellipse cx="10.602" cy="4.867" fill="#E27A3B" rx="4.928" ry="4.867"/>
        </g>
        <g fill="#FFF" transform="translate(22.966 .363)">
            <path d="M11.153 12.36C4.928 12.552 0 17.74 0 23.952v10.823c0 .704.584 1.28 1.297 1.28.648 0 1.232-.512 1.297-1.152l1.102-11.336c.065-.384.324-.64.713-.64.39 0 .714.32.714.704v33.494c0 1.025.843 1.794 1.815 1.794h.39c.972 0 1.75-.705 1.815-1.665l1.492-17.548c.064-.384.389-.704.778-.704s.778.32.778.704l1.815 17.612c.13.96 1.038 1.729 2.01 1.6.973-.127 1.622-.96 1.622-1.92v-33.43c0-.385.324-.705.713-.705.39 0 .713.256.713.64l1.103 11.336a1.44 1.44 0 0 0 1.102 1.217c.843.128 1.492-.513 1.492-1.281v-11.08c.194-6.404-5.123-11.527-11.608-11.335z"/>
            <path fill-rule="nonzero" d="M4.02 22.927a.67.67 0 0 0-.324.576l-.13.769v-.705c0-.256.195-.512.454-.64z"/>
            <ellipse cx="11.478" cy="5.38" rx="5.382" ry="5.315"/>
        </g>
    </g>
</svg>
