<svg xmlns="http://www.w3.org/2000/svg" width="67" height="76" viewBox="0 0 67 76">
    <defs>
        <filter id="a" width="178.4%" height="166.7%" x="-39.2%" y="-33.3%" filterUnits="objectBoundingBox">
            <feOffset dy="2" in="SourceAlpha" result="shadowOffsetOuter1"/>
            <feGaussianBlur in="shadowOffsetOuter1" result="shadowBlurOuter1" stdDeviation="4"/>
            <feColorMatrix in="shadowBlurOuter1" result="shadowMatrixOuter1" values="0 0 0 0 0.000212585034 0 0 0 0 0.000212585034 0 0 0 0 0.000212585034 0 0 0 0.180508379 0"/>
            <feMerge>
                <feMergeNode in="shadowMatrixOuter1"/>
                <feMergeNode in="SourceGraphic"/>
            </feMerge>
        </filter>
    </defs>
    <g fill="none" fill-rule="evenodd" filter="url(#a)" transform="translate(8 6)">
        <path fill="#E27A3B" d="M48.255 40.068c-1.606 4.37-4.035 8.17-7.22 11.294-3.626 3.555-8.374 6.38-14.111 8.395a4.378 4.378 0 0 1-1.371.243H25.5a4.364 4.364 0 0 1-1.42-.242c-5.745-2.012-10.498-4.835-14.127-8.39-3.187-3.123-5.615-6.921-7.22-11.292C-.18 32.129-.015 23.375.119 16.34l.002-.108c.027-.581.045-1.191.054-1.865.049-3.308 2.668-6.045 5.963-6.23 6.87-.385 12.185-2.635 16.726-7.08l.04-.036a3.817 3.817 0 0 1 5.196 0l.04.037c4.541 4.444 9.856 6.694 16.726 7.08 3.295.184 5.914 2.92 5.963 6.229.01.678.027 1.288.054 1.865l.001.046c.133 7.048.298 15.82-2.628 23.79z"/>
        <path fill="#FFF" d="M40.392 30c0 8.227-6.653 14.924-14.84 14.954H25.5c-8.21 0-14.892-6.709-14.892-14.954 0-8.245 6.681-14.953 14.892-14.953h.052c8.187.029 14.84 6.726 14.84 14.953z"/>
        <path fill="#E27A3B" d="M32.26 27.847l-6.708 6.735-1.449 1.455a1.746 1.746 0 0 1-2.48 0l-3.116-3.13a1.765 1.765 0 0 1 0-2.49 1.748 1.748 0 0 1 2.479 0l1.877 1.886 6.917-6.946a1.747 1.747 0 0 1 2.48 0 1.765 1.765 0 0 1 0 2.49z"/>
        <path fill="#E27A3B" d="M32.26 27.847l-6.708 6.735v-4.98l4.228-4.245a1.747 1.747 0 0 1 2.48 0 1.765 1.765 0 0 1 0 2.49z"/>
    </g>
</svg>
